<?xml version="1.0" encoding="UTF-8" standalone="no"?>
<!-- Created with Inkscape (http://www.inkscape.org/) -->

<svg
   version="1.1"
   id="svg2"
   xml:space="preserve"
   width="1600.5095"
   height="502.77777"
   viewBox="0 0 480.15286 150.83333"
   sodipodi:docname="NGI0Core_tag_white_mono.svg"
   inkscape:version="1.4.2 (ebf0e940d0, 2025-05-08)"
   xmlns:inkscape="http://www.inkscape.org/namespaces/inkscape"
   xmlns:sodipodi="http://sodipodi.sourceforge.net/DTD/sodipodi-0.dtd"
   xmlns:xlink="http://www.w3.org/1999/xlink"
   xmlns="http://www.w3.org/2000/svg"
   xmlns:svg="http://www.w3.org/2000/svg"
   xmlns:rdf="http://www.w3.org/1999/02/22-rdf-syntax-ns#"
   xmlns:cc="http://creativecommons.org/ns#"
   xmlns:dc="http://purl.org/dc/elements/1.1/"><sodipodi:namedview
     id="namedview1"
     pagecolor="#ffffff"
     bordercolor="#666666"
     borderopacity="1.0"
     inkscape:showpageshadow="2"
     inkscape:pageopacity="0.0"
     inkscape:pagecheckerboard="0"
     inkscape:deskcolor="#d1d1d1"
     inkscape:zoom="0.5460761"
     inkscape:cx="799.33914"
     inkscape:cy="250.88078"
     inkscape:window-width="3440"
     inkscape:window-height="1440"
     inkscape:window-x="0"
     inkscape:window-y="0"
     inkscape:window-maximized="0"
     inkscape:current-layer="svg2" /><metadata
     id="metadata8"><rdf:RDF><cc:Work
         rdf:about=""><dc:format>image/svg+xml</dc:format><dc:type
           rdf:resource="http://purl.org/dc/dcmitype/StillImage" /></cc:Work></rdf:RDF></metadata><defs
     id="defs6"><linearGradient
   id="linearGradient1220"><stop
     id="stop1216"
     offset="0"
     style="stop-color:#98bf00;stop-opacity:1;" /><stop
     id="stop1218"
     offset="1"
     style="stop-color:#98bf00;stop-opacity:0.51" /></linearGradient><linearGradient
   x1="0"
   y1="0"
   x2="1"
   y2="0"
   gradientUnits="userSpaceOnUse"
   gradientTransform="matrix(-139.45511,-135.52185,-135.52185,139.45511,177.4727,131.75308)"
   spreadMethod="pad"
   id="linearGradient28"><stop
     style="stop-opacity:1;stop-color:#00afbc"
     offset="0"
     id="stop24" /><stop
     style="stop-opacity:1;stop-color:#205374"
     offset="1"
     id="stop26" /></linearGradient><clipPath
   clipPathUnits="userSpaceOnUse"
   id="clipPath38"><path
     d="M 0,127.984 H 415.474 V 0 H 0 Z"
     id="path36" /></clipPath><linearGradient
   xlink:href="#linearGradient1220"
   id="linearGradient947"
   gradientUnits="userSpaceOnUse"
   x1="14.915152"
   y1="14.167241"
   x2="214.11908"
   y2="111.76186"
   gradientTransform="matrix(4.4444443,0,0,-4.4444443,-33.008887,535.8)" />










</defs><path
     id="path30"
     style="fill:#ffffff;fill-opacity:1;stroke:none;stroke-width:1.33333"
     d="m 23.734571,9.0000043 c -8.105333,0 -14.7345707,6.6305707 -14.7345707,14.7345707 V 127.09864 c 0,8.10534 6.6292377,14.73457 14.7345707,14.73457 H 243.78106 c 8.104,0 14.73516,-6.63057 14.73516,-14.73457 v -24.34687 c 0,-2.69601 1.07032,-5.28263 2.97832,-7.19063 l 12.12832,-12.127734 c 3.38667,-3.385335 3.37709,-8.876115 -0.0176,-12.250783 L 261.51622,59.159772 c -1.92,-1.908 -3,-4.505052 -3,-7.211718 V 23.734575 c 0,-8.104 -6.63116,-14.7345707 -14.73516,-14.7345707 z M 167.57344,31.463678 c 7.44667,0 14.20688,1.256061 20.27754,3.764061 2.632,1.088001 5.08275,2.388849 7.34942,3.903516 4.80533,3.209334 5.06012,10.281271 0.42011,13.935937 -2.97733,2.345334 -7.22163,2.377851 -10.34296,0.228516 -4.91334,-3.384 -10.49187,-5.075976 -16.73321,-5.075976 -5.424,0 -10.24005,1.134438 -14.44804,3.398439 -4.21067,2.269332 -7.48814,5.464221 -9.83614,9.593553 -2.348,4.128 -3.5209,8.863551 -3.5209,14.204884 0,5.262666 1.1729,9.957351 3.5209,14.085351 2.348,4.128 5.60586,7.346655 9.7752,9.653322 4.168,2.306669 8.92374,3.459959 14.2664,3.459959 3.10534,0 6.04131,-0.3652 8.80664,-1.09453 2.94134,-0.776 5.18537,-2.993344 6.0627,-5.777344 0.30933,-0.986667 -0.44658,-1.991601 -1.48125,-1.991601 -5.64933,0 -10.18571,-4.761453 -9.81504,-10.489452 0.33867,-5.226669 4.91211,-9.179884 10.15078,-9.179884 h 9.71074 c 0.0867,0 0.17072,0.01023 0.25606,0.0129 0.0867,-0.0027 0.17072,-0.0129 0.25605,-0.0129 h 0.67442 c 4.77733,0 8.64844,3.871852 8.64844,8.647852 v 12.062694 c 0,9.916005 -6.37351,18.792905 -15.84551,21.728905 -0.06,0.0187 -0.12164,0.0376 -0.18164,0.0563 -6.072,1.86133 -12.18391,2.79317 -18.33458,2.79317 -8.82399,0 -16.75577,-1.88135 -23.79843,-5.64668 -7.04267,-3.764 -12.56658,-8.98403 -16.57324,-15.662698 -4.00667,-6.678666 -6.01055,-14.225313 -6.01055,-22.645314 0,-8.417335 2.00388,-15.966223 6.01055,-22.643554 4.00666,-6.678669 9.57036,-11.900032 16.6957,-15.662698 7.12,-3.763998 15.13451,-5.646678 24.03984,-5.646678 z M 42.631642,32.920319 h 1.957032 c 2.911999,0 5.670649,1.305063 7.514647,3.558396 l 32.180275,39.300002 c 2.402667,2.936001 7.160157,1.236303 7.160157,-2.55703 V 42.633404 c 0,-5.365335 4.347753,-9.713085 9.713087,-9.713085 5.36533,0 9.71484,4.34775 9.71484,9.713085 v 65.568166 c 0,5.364 -4.34951,9.71309 -9.71484,9.71309 h -1.841018 c -2.907999,0 -5.662869,-1.30236 -7.508202,-3.54903 L 59.502542,75.025789 c -2.405334,-2.929336 -7.157814,-1.228363 -7.157814,2.562303 v 30.613478 c 0,5.364 -4.347753,9.71309 -9.713086,9.71309 -5.364,0 -9.713085,-4.34909 -9.713085,-9.71309 V 42.633404 c 0,-5.365335 4.349085,-9.713085 9.713085,-9.713085 z m 182.129888,6e-4 c 5.432,0 9.83496,4.402374 9.83496,9.834375 v 65.323826 c 0,5.432 -4.40296,9.83497 -9.83496,9.83497 -5.432,0 -9.83437,-4.40297 -9.83437,-9.83497 V 42.755279 c 0,-5.432001 4.40237,-9.834375 9.83437,-9.834375 z" /><g
     id="g40"
     transform="matrix(1.3333333,0,0,-1.3333333,224.76159,32.92067)"
     style="fill:#ffffff" /><g
     id="g44"
     transform="matrix(1.3333333,0,0,-1.3333333,192.92306,74.082135)"
     style="fill:#ffffff" /><path
     d="m 314.37199,72.478396 v -3.68416 l 19.1407,-23.37536 0.6352,2.074987 H 314.66842 V 42.83573 h 24.43403 v 3.68416 l -19.1407,23.375359 -0.67754,-2.074987 h 20.36874 v 4.658134 z"
     style="font-weight:600;font-size:31.76px;font-family:Montserrat;-inkscape-font-specification:'Montserrat Semi-Bold';fill:#ffffff;stroke-width:1.33333"
     id="path152350" /><path
     d="m 361.46144,55.158609 h 14.73664 v 4.531094 h -14.73664 z m 0.42347,12.704 h 16.72693 v 4.615787 h -22.232 V 42.83573 h 21.63915 v 4.615786 h -16.13408 z"
     style="font-weight:600;font-size:31.76px;font-family:Montserrat;-inkscape-font-specification:'Montserrat Semi-Bold';fill:#ffffff;stroke-width:1.33333"
     id="path152352" /><path
     d="M 396.43976,72.478396 V 42.83573 h 12.19584 q 3.93824,0 6.73312,1.2704 2.83723,1.2704 4.36171,3.641813 1.52448,2.371413 1.52448,5.632106 0,3.260694 -1.52448,5.632107 -1.52448,2.329066 -4.36171,3.599466 -2.79488,1.228054 -6.73312,1.228054 h -9.14688 l 2.45611,-2.498454 v 11.137174 z m 19.39478,0 -7.49536,-10.756054 h 5.88618 l 7.53771,10.756054 z m -13.88971,-10.54432 -2.45611,-2.625493 h 8.8928 q 3.64182,0 5.46272,-1.566827 1.86326,-1.566827 1.86326,-4.361707 0,-2.837226 -1.86326,-4.361706 -1.8209,-1.52448 -5.46272,-1.52448 h -8.8928 l 2.45611,-2.710187 z"
     style="font-weight:600;font-size:31.76px;font-family:Montserrat;-inkscape-font-specification:'Montserrat Semi-Bold';fill:#ffffff;stroke-width:1.33333"
     id="path152354" /><path
     d="m 452.97256,72.901862 q -3.47242,0 -6.39434,-1.14336 -2.92192,-1.14336 -5.0816,-3.176 -2.15968,-2.074986 -3.34539,-4.82752 -1.18571,-2.79488 -1.18571,-6.097919 0,-3.30304 1.18571,-6.055574 1.18571,-2.79488 3.34539,-4.827519 2.15968,-2.074987 5.0816,-3.218347 2.92192,-1.14336 6.352,-1.14336 3.47242,0 6.352,1.14336 2.92192,1.14336 5.0816,3.218347 2.15968,2.032639 3.34538,4.827519 1.18571,2.752534 1.18571,6.055574 0,3.303039 -1.18571,6.097919 -1.1857,2.79488 -3.34538,4.82752 -2.15968,2.03264 -5.0816,3.176 -2.87958,1.14336 -6.30966,1.14336 z m -0.0424,-4.82752 q 2.24438,0 4.14998,-0.76224 1.9056,-0.76224 3.30304,-2.15968 1.39744,-1.439786 2.15968,-3.30304 0.80458,-1.905599 0.80458,-4.192319 0,-2.28672 -0.80458,-4.149974 -0.76224,-1.9056 -2.15968,-3.30304 -1.39744,-1.439786 -3.30304,-2.202026 -1.9056,-0.76224 -4.14998,-0.76224 -2.24437,0 -4.14997,0.76224 -1.86325,0.76224 -3.30304,2.202026 -1.39744,1.39744 -2.20203,3.30304 -0.76224,1.863254 -0.76224,4.149974 0,2.244373 0.76224,4.149973 0.80459,1.9056 2.20203,3.345386 1.39744,1.39744 3.30304,2.15968 1.9056,0.76224 4.14997,0.76224 z"
     style="font-weight:600;font-size:31.76px;font-family:Montserrat;-inkscape-font-specification:'Montserrat Semi-Bold';fill:#ffffff;stroke-width:1.33333"
     id="path152356" /><path
     d="m 329.04501,114.32551 q -3.38756,0 -6.30934,-1.10107 -2.87941,-1.14342 -5.03898,-3.17617 -2.11723,-2.07509 -3.30287,-4.87012 -1.18565,-2.79502 -1.18565,-6.098232 0,-3.303212 1.18565,-6.098238 1.18564,-2.795025 3.34523,-4.82777 2.15956,-2.075095 5.03897,-3.176165 2.87943,-1.14342 6.30933,-1.14342 3.64162,0 6.64808,1.270466 3.00646,1.228118 5.08134,3.684351 l -3.55694,3.345561 q -1.60909,-1.736304 -3.59928,-2.583281 -1.9902,-0.889326 -4.31913,-0.889326 -2.32895,0 -4.2768,0.762279 -1.90549,0.76228 -3.34521,2.159792 -1.39736,1.397513 -2.20191,3.303212 -0.7622,1.9057 -0.7622,4.192539 0,2.286842 0.7622,4.192532 0.80455,1.9057 2.20191,3.30322 1.43972,1.39751 3.34521,2.15979 1.94785,0.76228 4.2768,0.76228 2.32893,0 4.31913,-0.84698 1.99019,-0.88933 3.59928,-2.66798 l 3.55694,3.38791 q -2.07488,2.41389 -5.08134,3.68435 -3.00645,1.27047 -6.69042,1.27047 z"
     style="font-weight:600;font-size:31.76px;font-family:Montserrat;-inkscape-font-specification:'Montserrat Semi-Bold';letter-spacing:7.875px;fill:#ffffff;stroke-width:2.24977"
     id="path152323" /><path
     d="m 367.5382,114.32551 q -3.47225,0 -6.39402,-1.14342 -2.92176,-1.14342 -5.08134,-3.17616 -2.15956,-2.0751 -3.34521,-4.82778 -1.18564,-2.79502 -1.18564,-6.098232 0,-3.303212 1.18564,-6.055888 1.18565,-2.795026 3.34521,-4.827772 2.15958,-2.075095 5.08134,-3.218513 2.92177,-1.14342 6.35168,-1.14342 3.47224,0 6.35166,1.14342 2.92178,1.143418 5.08134,3.218513 2.15957,2.032746 3.34521,4.827772 1.18564,2.752676 1.18564,6.055888 0,3.303212 -1.18564,6.098232 -1.18564,2.79503 -3.34521,4.82778 -2.15956,2.03274 -5.08134,3.17616 -2.87942,1.14342 -6.30932,1.14342 z m -0.0424,-4.82777 q 2.24426,0 4.14976,-0.76228 1.9055,-0.76228 3.30287,-2.15979 1.39736,-1.43986 2.15956,-3.30322 0.80455,-1.90569 0.80455,-4.192532 0,-2.286839 -0.80455,-4.15019 -0.7622,-1.905698 -2.15956,-3.303212 -1.39737,-1.439861 -3.30287,-2.202141 -1.9055,-0.762279 -4.14976,-0.762279 -2.24426,0 -4.14976,0.762279 -1.86316,0.76228 -3.30286,2.202141 -1.39738,1.397514 -2.20192,3.303212 -0.7622,1.863351 -0.7622,4.15019 0,2.244492 0.7622,4.150192 0.80454,1.9057 2.20192,3.34556 1.39736,1.39751 3.30286,2.15979 1.9055,0.76228 4.14976,0.76228 z"
     style="font-weight:600;font-size:31.76px;font-family:Montserrat;-inkscape-font-specification:'Montserrat Semi-Bold';letter-spacing:7.875px;fill:#ffffff;stroke-width:2.24977"
     id="path152325" /><path
     d="M 396.44043,113.90202 V 84.257814 h 12.1952 q 3.93804,0 6.73277,1.270465 2.83708,1.270467 4.36148,3.642003 1.5244,2.371537 1.5244,5.6324 0,3.260862 -1.5244,5.632398 -1.5244,2.32919 -4.36148,3.59965 -2.79473,1.22812 -6.73277,1.22812 h -9.1464 l 2.45597,-2.49858 v 11.13775 z m 19.39376,0 -7.49497,-10.75661 h 5.88588 l 7.53732,10.75661 z m -13.88899,-10.54487 -2.45597,-2.62563 h 8.89233 q 3.64163,0 5.46244,-1.566905 1.86316,-1.566908 1.86316,-4.361933 0,-2.837375 -1.86316,-4.361934 -1.82081,-1.52456 -5.46244,-1.52456 h -8.89233 l 2.45597,-2.710326 z"
     style="font-weight:600;font-size:31.76px;font-family:Montserrat;-inkscape-font-specification:'Montserrat Semi-Bold';letter-spacing:7.875px;fill:#ffffff;stroke-width:2.24977"
     id="path152327" /><path
     d="m 444.77472,96.581334 h 14.73588 v 4.531326 h -14.73588 z m 0.42346,12.704656 h 16.72605 v 4.61603 H 439.69339 V 84.257814 h 21.63803 v 4.616026 h -16.13324 z"
     style="font-weight:600;font-size:31.76px;font-family:Montserrat;-inkscape-font-specification:'Montserrat Semi-Bold';letter-spacing:7.875px;fill:#ffffff;stroke-width:2.24977"
     id="path152329" /><text
     style="font-style:normal;font-variant:normal;font-weight:bold;font-stretch:normal;font-size:26.68px;font-family:'Montserrat SemiBold';-inkscape-font-specification:'Montserrat SemiBold, Bold';font-variant-ligatures:normal;font-variant-caps:normal;font-variant-numeric:normal;font-feature-settings:normal;text-align:start;writing-mode:lr-tb;text-anchor:start;fill:#ffffff;fill-opacity:1;fill-rule:nonzero;stroke:none;stroke-width:1.33333"
     id="text2843"
     x="310.31342"
     y="112.88041"><tspan
       id="tspan2841"
       x="310.31342"
       y="112.88041"
       style="fill:#ffffff;stroke-width:1.33333" /></text><path
     id="path152416"
     style="fill:#ffffff;fill-opacity:1;stroke:none;stroke-width:1.33333"
     d="m 23.734571,9.0000043 c -8.105333,0 -14.7345707,6.6305707 -14.7345707,14.7345707 V 127.09864 c 0,8.10534 6.6292377,14.73457 14.7345707,14.73457 H 243.78106 c 8.104,0 14.73516,-6.63057 14.73516,-14.73457 v -24.34687 c 0,-2.69601 1.07032,-5.28263 2.97832,-7.19063 l 12.12832,-12.127734 c 3.38667,-3.385335 3.37709,-8.876115 -0.0176,-12.250783 L 261.51622,59.159772 c -1.92,-1.908 -3,-4.505052 -3,-7.211718 V 23.734575 c 0,-8.104 -6.63116,-14.7345707 -14.73516,-14.7345707 z M 167.57344,31.463678 c 7.44667,0 14.20688,1.256061 20.27754,3.764061 2.632,1.088001 5.08275,2.388849 7.34942,3.903516 4.80533,3.209334 5.06012,10.281271 0.42011,13.935937 -2.97733,2.345334 -7.22163,2.377851 -10.34296,0.228516 -4.91334,-3.384 -10.49187,-5.075976 -16.73321,-5.075976 -5.424,0 -10.24005,1.134438 -14.44804,3.398439 -4.21067,2.269332 -7.48814,5.464221 -9.83614,9.593553 -2.348,4.128 -3.5209,8.863551 -3.5209,14.204884 0,5.262666 1.1729,9.957351 3.5209,14.085351 2.348,4.128 5.60586,7.346655 9.7752,9.653322 4.168,2.306669 8.92374,3.459959 14.2664,3.459959 3.10534,0 6.04131,-0.3652 8.80664,-1.09453 2.94134,-0.776 5.18537,-2.993344 6.0627,-5.777344 0.30933,-0.986667 -0.44658,-1.991601 -1.48125,-1.991601 -5.64933,0 -10.18571,-4.761453 -9.81504,-10.489452 0.33867,-5.226669 4.91211,-9.179884 10.15078,-9.179884 h 9.71074 c 0.0867,0 0.17072,0.01023 0.25606,0.0129 0.0867,-0.0027 0.17072,-0.0129 0.25605,-0.0129 h 0.67442 c 4.77733,0 8.64844,3.871852 8.64844,8.647852 v 12.062694 c 0,9.916005 -6.37351,18.792905 -15.84551,21.728905 -0.06,0.0187 -0.12164,0.0376 -0.18164,0.0563 -6.072,1.86133 -12.18391,2.79317 -18.33458,2.79317 -8.82399,0 -16.75577,-1.88135 -23.79843,-5.64668 -7.04267,-3.764 -12.56658,-8.98403 -16.57324,-15.662698 -4.00667,-6.678666 -6.01055,-14.225313 -6.01055,-22.645314 0,-8.417335 2.00388,-15.966223 6.01055,-22.643554 4.00666,-6.678669 9.57036,-11.900032 16.6957,-15.662698 7.12,-3.763998 15.13451,-5.646678 24.03984,-5.646678 z M 42.631642,32.920319 h 1.957032 c 2.911999,0 5.670649,1.305063 7.514647,3.558396 l 32.180275,39.300002 c 2.402667,2.936001 7.160157,1.236303 7.160157,-2.55703 V 42.633404 c 0,-5.365335 4.347753,-9.713085 9.713087,-9.713085 5.36533,0 9.71484,4.34775 9.71484,9.713085 v 65.568166 c 0,5.364 -4.34951,9.71309 -9.71484,9.71309 h -1.841018 c -2.907999,0 -5.662869,-1.30236 -7.508202,-3.54903 L 59.502542,75.025789 c -2.405334,-2.929336 -7.157814,-1.228363 -7.157814,2.562303 v 30.613478 c 0,5.364 -4.347753,9.71309 -9.713086,9.71309 -5.364,0 -9.713085,-4.34909 -9.713085,-9.71309 V 42.633404 c 0,-5.365335 4.349085,-9.713085 9.713085,-9.713085 z m 182.129888,6e-4 c 5.432,0 9.83496,4.402374 9.83496,9.834375 v 65.323826 c 0,5.432 -4.40296,9.83497 -9.83496,9.83497 -5.432,0 -9.83437,-4.40297 -9.83437,-9.83497 V 42.755279 c 0,-5.432001 4.40237,-9.834375 9.83437,-9.834375 z" /><path
     d="m 314.37199,72.478396 v -3.68416 l 19.1407,-23.37536 0.6352,2.074987 H 314.66842 V 42.83573 h 24.43403 v 3.68416 l -19.1407,23.375359 -0.67754,-2.074987 h 20.36874 v 4.658134 z"
     style="font-weight:600;font-size:31.76px;font-family:Montserrat;-inkscape-font-specification:'Montserrat Semi-Bold';fill:#ffffff;stroke-width:1.33333"
     id="path152418" /><path
     d="m 361.46144,55.158609 h 14.73664 v 4.531094 h -14.73664 z m 0.42347,12.704 h 16.72693 v 4.615787 h -22.232 V 42.83573 h 21.63915 v 4.615786 h -16.13408 z"
     style="font-weight:600;font-size:31.76px;font-family:Montserrat;-inkscape-font-specification:'Montserrat Semi-Bold';fill:#ffffff;stroke-width:1.33333"
     id="path152420" /><path
     d="M 396.43976,72.478396 V 42.83573 h 12.19584 q 3.93824,0 6.73312,1.2704 2.83723,1.2704 4.36171,3.641813 1.52448,2.371413 1.52448,5.632106 0,3.260694 -1.52448,5.632107 -1.52448,2.329066 -4.36171,3.599466 -2.79488,1.228054 -6.73312,1.228054 h -9.14688 l 2.45611,-2.498454 v 11.137174 z m 19.39478,0 -7.49536,-10.756054 h 5.88618 l 7.53771,10.756054 z m -13.88971,-10.54432 -2.45611,-2.625493 h 8.8928 q 3.64182,0 5.46272,-1.566827 1.86326,-1.566827 1.86326,-4.361707 0,-2.837226 -1.86326,-4.361706 -1.8209,-1.52448 -5.46272,-1.52448 h -8.8928 l 2.45611,-2.710187 z"
     style="font-weight:600;font-size:31.76px;font-family:Montserrat;-inkscape-font-specification:'Montserrat Semi-Bold';fill:#ffffff;stroke-width:1.33333"
     id="path152422" /><path
     d="m 452.97256,72.901862 q -3.47242,0 -6.39434,-1.14336 -2.92192,-1.14336 -5.0816,-3.176 -2.15968,-2.074986 -3.34539,-4.82752 -1.18571,-2.79488 -1.18571,-6.097919 0,-3.30304 1.18571,-6.055574 1.18571,-2.79488 3.34539,-4.827519 2.15968,-2.074987 5.0816,-3.218347 2.92192,-1.14336 6.352,-1.14336 3.47242,0 6.352,1.14336 2.92192,1.14336 5.0816,3.218347 2.15968,2.032639 3.34538,4.827519 1.18571,2.752534 1.18571,6.055574 0,3.303039 -1.18571,6.097919 -1.1857,2.79488 -3.34538,4.82752 -2.15968,2.03264 -5.0816,3.176 -2.87958,1.14336 -6.30966,1.14336 z m -0.0424,-4.82752 q 2.24438,0 4.14998,-0.76224 1.9056,-0.76224 3.30304,-2.15968 1.39744,-1.439786 2.15968,-3.30304 0.80458,-1.905599 0.80458,-4.192319 0,-2.28672 -0.80458,-4.149974 -0.76224,-1.9056 -2.15968,-3.30304 -1.39744,-1.439786 -3.30304,-2.202026 -1.9056,-0.76224 -4.14998,-0.76224 -2.24437,0 -4.14997,0.76224 -1.86325,0.76224 -3.30304,2.202026 -1.39744,1.39744 -2.20203,3.30304 -0.76224,1.863254 -0.76224,4.149974 0,2.244373 0.76224,4.149973 0.80459,1.9056 2.20203,3.345386 1.39744,1.39744 3.30304,2.15968 1.9056,0.76224 4.14997,0.76224 z"
     style="font-weight:600;font-size:31.76px;font-family:Montserrat;-inkscape-font-specification:'Montserrat Semi-Bold';fill:#ffffff;stroke-width:1.33333"
     id="path152424" /><path
     d="m 329.04501,114.32551 q -3.38756,0 -6.30934,-1.10107 -2.87941,-1.14342 -5.03898,-3.17617 -2.11723,-2.07509 -3.30287,-4.87012 -1.18565,-2.79502 -1.18565,-6.098232 0,-3.303212 1.18565,-6.098238 1.18564,-2.795025 3.34523,-4.82777 2.15956,-2.075095 5.03897,-3.176165 2.87943,-1.14342 6.30933,-1.14342 3.64162,0 6.64808,1.270466 3.00646,1.228118 5.08134,3.684351 l -3.55694,3.345561 q -1.60909,-1.736304 -3.59928,-2.583281 -1.9902,-0.889326 -4.31913,-0.889326 -2.32895,0 -4.2768,0.762279 -1.90549,0.76228 -3.34521,2.159792 -1.39736,1.397513 -2.20191,3.303212 -0.7622,1.9057 -0.7622,4.192539 0,2.286842 0.7622,4.192532 0.80455,1.9057 2.20191,3.30322 1.43972,1.39751 3.34521,2.15979 1.94785,0.76228 4.2768,0.76228 2.32893,0 4.31913,-0.84698 1.99019,-0.88933 3.59928,-2.66798 l 3.55694,3.38791 q -2.07488,2.41389 -5.08134,3.68435 -3.00645,1.27047 -6.69042,1.27047 z"
     style="font-weight:600;font-size:31.76px;font-family:Montserrat;-inkscape-font-specification:'Montserrat Semi-Bold';letter-spacing:7.875px;fill:#ffffff;stroke-width:2.24977"
     id="path152426" /><path
     d="m 367.5382,114.32551 q -3.47225,0 -6.39402,-1.14342 -2.92176,-1.14342 -5.08134,-3.17616 -2.15956,-2.0751 -3.34521,-4.82778 -1.18564,-2.79502 -1.18564,-6.098232 0,-3.303212 1.18564,-6.055888 1.18565,-2.795026 3.34521,-4.827772 2.15958,-2.075095 5.08134,-3.218513 2.92177,-1.14342 6.35168,-1.14342 3.47224,0 6.35166,1.14342 2.92178,1.143418 5.08134,3.218513 2.15957,2.032746 3.34521,4.827772 1.18564,2.752676 1.18564,6.055888 0,3.303212 -1.18564,6.098232 -1.18564,2.79503 -3.34521,4.82778 -2.15956,2.03274 -5.08134,3.17616 -2.87942,1.14342 -6.30932,1.14342 z m -0.0424,-4.82777 q 2.24426,0 4.14976,-0.76228 1.9055,-0.76228 3.30287,-2.15979 1.39736,-1.43986 2.15956,-3.30322 0.80455,-1.90569 0.80455,-4.192532 0,-2.286839 -0.80455,-4.15019 -0.7622,-1.905698 -2.15956,-3.303212 -1.39737,-1.439861 -3.30287,-2.202141 -1.9055,-0.762279 -4.14976,-0.762279 -2.24426,0 -4.14976,0.762279 -1.86316,0.76228 -3.30286,2.202141 -1.39738,1.397514 -2.20192,3.303212 -0.7622,1.863351 -0.7622,4.15019 0,2.244492 0.7622,4.150192 0.80454,1.9057 2.20192,3.34556 1.39736,1.39751 3.30286,2.15979 1.9055,0.76228 4.14976,0.76228 z"
     style="font-weight:600;font-size:31.76px;font-family:Montserrat;-inkscape-font-specification:'Montserrat Semi-Bold';letter-spacing:7.875px;fill:#ffffff;stroke-width:2.24977"
     id="path152428" /><path
     d="M 396.44043,113.90202 V 84.257814 h 12.1952 q 3.93804,0 6.73277,1.270465 2.83708,1.270467 4.36148,3.642003 1.5244,2.371537 1.5244,5.6324 0,3.260862 -1.5244,5.632398 -1.5244,2.32919 -4.36148,3.59965 -2.79473,1.22812 -6.73277,1.22812 h -9.1464 l 2.45597,-2.49858 v 11.13775 z m 19.39376,0 -7.49497,-10.75661 h 5.88588 l 7.53732,10.75661 z m -13.88899,-10.54487 -2.45597,-2.62563 h 8.89233 q 3.64163,0 5.46244,-1.566905 1.86316,-1.566908 1.86316,-4.361933 0,-2.837375 -1.86316,-4.361934 -1.82081,-1.52456 -5.46244,-1.52456 h -8.89233 l 2.45597,-2.710326 z"
     style="font-weight:600;font-size:31.76px;font-family:Montserrat;-inkscape-font-specification:'Montserrat Semi-Bold';letter-spacing:7.875px;fill:#ffffff;stroke-width:2.24977"
     id="path152430" /><path
     d="m 444.77472,96.581334 h 14.73588 v 4.531326 h -14.73588 z m 0.42346,12.704656 h 16.72605 v 4.61603 H 439.69339 V 84.257814 h 21.63803 v 4.616026 h -16.13324 z"
     style="font-weight:600;font-size:31.76px;font-family:Montserrat;-inkscape-font-specification:'Montserrat Semi-Bold';letter-spacing:7.875px;fill:#ffffff;stroke-width:2.24977"
     id="path152432" /><path
     id="path152434"
     style="fill:#ffffff;fill-opacity:1;stroke:none;stroke-width:1.33333"
     d="m 23.734571,9.0000043 c -8.105333,0 -14.7345707,6.6305707 -14.7345707,14.7345707 V 127.09864 c 0,8.10534 6.6292377,14.73457 14.7345707,14.73457 H 243.78106 c 8.104,0 14.73516,-6.63057 14.73516,-14.73457 v -24.34687 c 0,-2.69601 1.07032,-5.28263 2.97832,-7.19063 l 12.12832,-12.127734 c 3.38667,-3.385335 3.37709,-8.876115 -0.0176,-12.250783 L 261.51622,59.159772 c -1.92,-1.908 -3,-4.505052 -3,-7.211718 V 23.734575 c 0,-8.104 -6.63116,-14.7345707 -14.73516,-14.7345707 z M 167.57344,31.463678 c 7.44667,0 14.20688,1.256061 20.27754,3.764061 2.632,1.088001 5.08275,2.388849 7.34942,3.903516 4.80533,3.209334 5.06012,10.281271 0.42011,13.935937 -2.97733,2.345334 -7.22163,2.377851 -10.34296,0.228516 -4.91334,-3.384 -10.49187,-5.075976 -16.73321,-5.075976 -5.424,0 -10.24005,1.134438 -14.44804,3.398439 -4.21067,2.269332 -7.48814,5.464221 -9.83614,9.593553 -2.348,4.128 -3.5209,8.863551 -3.5209,14.204884 0,5.262666 1.1729,9.957351 3.5209,14.085351 2.348,4.128 5.60586,7.346655 9.7752,9.653322 4.168,2.306669 8.92374,3.459959 14.2664,3.459959 3.10534,0 6.04131,-0.3652 8.80664,-1.09453 2.94134,-0.776 5.18537,-2.993344 6.0627,-5.777344 0.30933,-0.986667 -0.44658,-1.991601 -1.48125,-1.991601 -5.64933,0 -10.18571,-4.761453 -9.81504,-10.489452 0.33867,-5.226669 4.91211,-9.179884 10.15078,-9.179884 h 9.71074 c 0.0867,0 0.17072,0.01023 0.25606,0.0129 0.0867,-0.0027 0.17072,-0.0129 0.25605,-0.0129 h 0.67442 c 4.77733,0 8.64844,3.871852 8.64844,8.647852 v 12.062694 c 0,9.916005 -6.37351,18.792905 -15.84551,21.728905 -0.06,0.0187 -0.12164,0.0376 -0.18164,0.0563 -6.072,1.86133 -12.18391,2.79317 -18.33458,2.79317 -8.82399,0 -16.75577,-1.88135 -23.79843,-5.64668 -7.04267,-3.764 -12.56658,-8.98403 -16.57324,-15.662698 -4.00667,-6.678666 -6.01055,-14.225313 -6.01055,-22.645314 0,-8.417335 2.00388,-15.966223 6.01055,-22.643554 4.00666,-6.678669 9.57036,-11.900032 16.6957,-15.662698 7.12,-3.763998 15.13451,-5.646678 24.03984,-5.646678 z M 42.631642,32.920319 h 1.957032 c 2.911999,0 5.670649,1.305063 7.514647,3.558396 l 32.180275,39.300002 c 2.402667,2.936001 7.160157,1.236303 7.160157,-2.55703 V 42.633404 c 0,-5.365335 4.347753,-9.713085 9.713087,-9.713085 5.36533,0 9.71484,4.34775 9.71484,9.713085 v 65.568166 c 0,5.364 -4.34951,9.71309 -9.71484,9.71309 h -1.841018 c -2.907999,0 -5.662869,-1.30236 -7.508202,-3.54903 L 59.502542,75.025789 c -2.405334,-2.929336 -7.157814,-1.228363 -7.157814,2.562303 v 30.613478 c 0,5.364 -4.347753,9.71309 -9.713086,9.71309 -5.364,0 -9.713085,-4.34909 -9.713085,-9.71309 V 42.633404 c 0,-5.365335 4.349085,-9.713085 9.713085,-9.713085 z m 182.129888,6e-4 c 5.432,0 9.83496,4.402374 9.83496,9.834375 v 65.323826 c 0,5.432 -4.40296,9.83497 -9.83496,9.83497 -5.432,0 -9.83437,-4.40297 -9.83437,-9.83497 V 42.755279 c 0,-5.432001 4.40237,-9.834375 9.83437,-9.834375 z" /><path
     d="m 314.37199,72.478396 v -3.68416 l 19.1407,-23.37536 0.6352,2.074987 H 314.66842 V 42.83573 h 24.43403 v 3.68416 l -19.1407,23.375359 -0.67754,-2.074987 h 20.36874 v 4.658134 z"
     style="font-weight:600;font-size:31.76px;font-family:Montserrat;-inkscape-font-specification:'Montserrat Semi-Bold';fill:#ffffff;stroke-width:1.33333"
     id="path152436" /><path
     d="m 361.46144,55.158609 h 14.73664 v 4.531094 h -14.73664 z m 0.42347,12.704 h 16.72693 v 4.615787 h -22.232 V 42.83573 h 21.63915 v 4.615786 h -16.13408 z"
     style="font-weight:600;font-size:31.76px;font-family:Montserrat;-inkscape-font-specification:'Montserrat Semi-Bold';fill:#ffffff;stroke-width:1.33333"
     id="path152438" /><path
     d="M 396.43976,72.478396 V 42.83573 h 12.19584 q 3.93824,0 6.73312,1.2704 2.83723,1.2704 4.36171,3.641813 1.52448,2.371413 1.52448,5.632106 0,3.260694 -1.52448,5.632107 -1.52448,2.329066 -4.36171,3.599466 -2.79488,1.228054 -6.73312,1.228054 h -9.14688 l 2.45611,-2.498454 v 11.137174 z m 19.39478,0 -7.49536,-10.756054 h 5.88618 l 7.53771,10.756054 z m -13.88971,-10.54432 -2.45611,-2.625493 h 8.8928 q 3.64182,0 5.46272,-1.566827 1.86326,-1.566827 1.86326,-4.361707 0,-2.837226 -1.86326,-4.361706 -1.8209,-1.52448 -5.46272,-1.52448 h -8.8928 l 2.45611,-2.710187 z"
     style="font-weight:600;font-size:31.76px;font-family:Montserrat;-inkscape-font-specification:'Montserrat Semi-Bold';fill:#ffffff;stroke-width:1.33333"
     id="path152440" /><path
     d="m 452.97256,72.901862 q -3.47242,0 -6.39434,-1.14336 -2.92192,-1.14336 -5.0816,-3.176 -2.15968,-2.074986 -3.34539,-4.82752 -1.18571,-2.79488 -1.18571,-6.097919 0,-3.30304 1.18571,-6.055574 1.18571,-2.79488 3.34539,-4.827519 2.15968,-2.074987 5.0816,-3.218347 2.92192,-1.14336 6.352,-1.14336 3.47242,0 6.352,1.14336 2.92192,1.14336 5.0816,3.218347 2.15968,2.032639 3.34538,4.827519 1.18571,2.752534 1.18571,6.055574 0,3.303039 -1.18571,6.097919 -1.1857,2.79488 -3.34538,4.82752 -2.15968,2.03264 -5.0816,3.176 -2.87958,1.14336 -6.30966,1.14336 z m -0.0424,-4.82752 q 2.24438,0 4.14998,-0.76224 1.9056,-0.76224 3.30304,-2.15968 1.39744,-1.439786 2.15968,-3.30304 0.80458,-1.905599 0.80458,-4.192319 0,-2.28672 -0.80458,-4.149974 -0.76224,-1.9056 -2.15968,-3.30304 -1.39744,-1.439786 -3.30304,-2.202026 -1.9056,-0.76224 -4.14998,-0.76224 -2.24437,0 -4.14997,0.76224 -1.86325,0.76224 -3.30304,2.202026 -1.39744,1.39744 -2.20203,3.30304 -0.76224,1.863254 -0.76224,4.149974 0,2.244373 0.76224,4.149973 0.80459,1.9056 2.20203,3.345386 1.39744,1.39744 3.30304,2.15968 1.9056,0.76224 4.14997,0.76224 z"
     style="font-weight:600;font-size:31.76px;font-family:Montserrat;-inkscape-font-specification:'Montserrat Semi-Bold';fill:#ffffff;stroke-width:1.33333"
     id="path152442" /><path
     d="m 329.04501,114.32551 q -3.38756,0 -6.30934,-1.10107 -2.87941,-1.14342 -5.03898,-3.17617 -2.11723,-2.07509 -3.30287,-4.87012 -1.18565,-2.79502 -1.18565,-6.098232 0,-3.303212 1.18565,-6.098238 1.18564,-2.795025 3.34523,-4.82777 2.15956,-2.075095 5.03897,-3.176165 2.87943,-1.14342 6.30933,-1.14342 3.64162,0 6.64808,1.270466 3.00646,1.228118 5.08134,3.684351 l -3.55694,3.345561 q -1.60909,-1.736304 -3.59928,-2.583281 -1.9902,-0.889326 -4.31913,-0.889326 -2.32895,0 -4.2768,0.762279 -1.90549,0.76228 -3.34521,2.159792 -1.39736,1.397513 -2.20191,3.303212 -0.7622,1.9057 -0.7622,4.192539 0,2.286842 0.7622,4.192532 0.80455,1.9057 2.20191,3.30322 1.43972,1.39751 3.34521,2.15979 1.94785,0.76228 4.2768,0.76228 2.32893,0 4.31913,-0.84698 1.99019,-0.88933 3.59928,-2.66798 l 3.55694,3.38791 q -2.07488,2.41389 -5.08134,3.68435 -3.00645,1.27047 -6.69042,1.27047 z"
     style="font-weight:600;font-size:31.76px;font-family:Montserrat;-inkscape-font-specification:'Montserrat Semi-Bold';letter-spacing:7.875px;fill:#ffffff;stroke-width:2.24977"
     id="path152444" /><path
     d="m 367.5382,114.32551 q -3.47225,0 -6.39402,-1.14342 -2.92176,-1.14342 -5.08134,-3.17616 -2.15956,-2.0751 -3.34521,-4.82778 -1.18564,-2.79502 -1.18564,-6.098232 0,-3.303212 1.18564,-6.055888 1.18565,-2.795026 3.34521,-4.827772 2.15958,-2.075095 5.08134,-3.218513 2.92177,-1.14342 6.35168,-1.14342 3.47224,0 6.35166,1.14342 2.92178,1.143418 5.08134,3.218513 2.15957,2.032746 3.34521,4.827772 1.18564,2.752676 1.18564,6.055888 0,3.303212 -1.18564,6.098232 -1.18564,2.79503 -3.34521,4.82778 -2.15956,2.03274 -5.08134,3.17616 -2.87942,1.14342 -6.30932,1.14342 z m -0.0424,-4.82777 q 2.24426,0 4.14976,-0.76228 1.9055,-0.76228 3.30287,-2.15979 1.39736,-1.43986 2.15956,-3.30322 0.80455,-1.90569 0.80455,-4.192532 0,-2.286839 -0.80455,-4.15019 -0.7622,-1.905698 -2.15956,-3.303212 -1.39737,-1.439861 -3.30287,-2.202141 -1.9055,-0.762279 -4.14976,-0.762279 -2.24426,0 -4.14976,0.762279 -1.86316,0.76228 -3.30286,2.202141 -1.39738,1.397514 -2.20192,3.303212 -0.7622,1.863351 -0.7622,4.15019 0,2.244492 0.7622,4.150192 0.80454,1.9057 2.20192,3.34556 1.39736,1.39751 3.30286,2.15979 1.9055,0.76228 4.14976,0.76228 z"
     style="font-weight:600;font-size:31.76px;font-family:Montserrat;-inkscape-font-specification:'Montserrat Semi-Bold';letter-spacing:7.875px;fill:#ffffff;stroke-width:2.24977"
     id="path152446" /><path
     d="M 396.44043,113.90202 V 84.257814 h 12.1952 q 3.93804,0 6.73277,1.270465 2.83708,1.270467 4.36148,3.642003 1.5244,2.371537 1.5244,5.6324 0,3.260862 -1.5244,5.632398 -1.5244,2.32919 -4.36148,3.59965 -2.79473,1.22812 -6.73277,1.22812 h -9.1464 l 2.45597,-2.49858 v 11.13775 z m 19.39376,0 -7.49497,-10.75661 h 5.88588 l 7.53732,10.75661 z m -13.88899,-10.54487 -2.45597,-2.62563 h 8.89233 q 3.64163,0 5.46244,-1.566905 1.86316,-1.566908 1.86316,-4.361933 0,-2.837375 -1.86316,-4.361934 -1.82081,-1.52456 -5.46244,-1.52456 h -8.89233 l 2.45597,-2.710326 z"
     style="font-weight:600;font-size:31.76px;font-family:Montserrat;-inkscape-font-specification:'Montserrat Semi-Bold';letter-spacing:7.875px;fill:#ffffff;stroke-width:2.24977"
     id="path152448" /><path
     d="m 444.77472,96.581334 h 14.73588 v 4.531326 h -14.73588 z m 0.42346,12.704656 h 16.72605 v 4.61603 H 439.69339 V 84.257814 h 21.63803 v 4.616026 h -16.13324 z"
     style="font-weight:600;font-size:31.76px;font-family:Montserrat;-inkscape-font-specification:'Montserrat Semi-Bold';letter-spacing:7.875px;fill:#ffffff;stroke-width:2.24977"
     id="path152450" /><path
     id="path152452"
     style="fill:#ffffff;fill-opacity:1;stroke:none;stroke-width:1.33333"
     d="M 23.73457 9 C 15.629237 9 9 15.63057 9 23.73457 L 9 127.09863 C 9 135.20397 15.629237 141.8332 23.73457 141.8332 L 243.78105 141.8332 C 251.88505 141.8332 258.51621 135.20263 258.51621 127.09863 L 258.51621 102.75176 C 258.51621 100.05575 259.58653 97.469133 261.49453 95.561133 L 273.62285 83.433398 C 277.00952 80.048063 276.99996 74.557285 273.60527 71.182617 L 261.51621 59.159766 C 259.59621 57.251766 258.51621 54.654713 258.51621 51.948047 L 258.51621 23.73457 C 258.51621 15.63057 251.88505 9 243.78105 9 L 23.73457 9 z M 167.57344 31.463672 C 175.02011 31.463672 181.78032 32.719734 187.85098 35.227734 C 190.48298 36.315735 192.93372 37.616583 195.20039 39.13125 C 198.23228 41.156157 199.45281 44.718895 198.7752 47.990625 C 198.3928 49.936327 197.34129 51.785275 195.60293 53.154492 C 192.62559 55.499824 188.3813 55.532328 185.25996 53.383008 C 180.34663 49.999006 174.76808 48.307031 168.52676 48.307031 C 163.10276 48.307031 158.28671 49.441469 154.07871 51.705469 C 149.86804 53.974803 146.59058 57.169692 144.24258 61.299023 C 142.87797 63.698128 141.91047 66.302138 141.33926 69.111328 C 140.93933 71.109744 140.73926 73.211585 140.73926 75.416602 C 140.73926 80.679268 141.91216 85.373953 144.26016 89.501953 C 146.60816 93.629953 149.86601 96.848606 154.03535 99.155273 C 158.20335 101.46194 162.9591 102.61523 168.30176 102.61523 C 171.4071 102.61523 174.34307 102.25003 177.1084 101.5207 C 180.04974 100.7447 182.29376 98.527359 183.17109 95.743359 C 183.18289 95.70572 183.1934 95.667909 183.20215 95.630273 C 183.35967 94.712345 182.63701 93.839062 181.67227 93.839062 C 176.02294 93.839062 171.48656 89.077604 171.85723 83.349609 C 171.88596 82.906177 171.94491 82.471706 172.03242 82.048242 C 172.94029 77.435485 177.20097 74.082422 182.02559 74.082422 L 191.73633 74.082422 C 191.82303 74.082422 191.90704 74.092642 191.99238 74.095312 C 192.07908 74.092612 192.16311 74.082422 192.24844 74.082422 L 192.92285 74.082422 C 197.70018 74.082422 201.57129 77.954273 201.57129 82.730273 L 201.57129 94.792969 C 201.57129 96.359105 201.4123 97.899353 201.10723 99.394336 C 199.50513 107.40316 193.71317 114.12732 185.7082 116.60859 C 185.64816 116.62729 185.58656 116.64673 185.52656 116.66543 C 179.45456 118.52677 173.34266 119.45859 167.19199 119.45859 C 158.368 119.45859 150.43622 117.57724 143.39355 113.81191 C 136.3509 110.04791 130.82698 104.82788 126.82031 98.149219 C 122.81365 91.47056 120.80977 83.923901 120.80977 75.503906 C 120.80977 72.205789 121.11739 69.040648 121.73262 66.009375 C 122.68425 61.271382 124.38612 56.859048 126.83789 52.773047 C 130.84455 46.094378 136.40825 40.873018 143.53359 37.110352 C 150.65359 33.346354 158.66811 31.463672 167.57344 31.463672 z M 42.631641 32.920312 L 44.588672 32.920312 C 47.500671 32.920312 50.259322 34.225378 52.10332 36.478711 L 84.283594 75.778711 C 86.489433 78.474194 90.679962 77.262545 91.351758 74.110547 C 91.40036 73.855308 91.426172 73.587865 91.426172 73.308984 L 91.426172 42.720703 C 91.426172 42.043831 91.495442 41.382716 91.627148 40.744922 C 92.505738 36.283777 96.437636 32.920312 101.15684 32.920312 C 106.52217 32.920312 110.87168 37.268063 110.87168 42.633398 L 110.87168 108.20156 C 110.87168 108.87821 110.80244 109.53852 110.6707 110.17617 C 109.79185 114.63672 105.85851 118.00195 101.13926 118.00195 L 99.298242 118.00195 C 96.390242 118.00195 93.635372 116.6996 91.790039 114.45293 L 59.484961 75.113086 C 57.276758 72.423836 53.090505 73.636647 52.419141 76.786523 C 52.370549 77.041702 52.344727 77.309288 52.344727 77.588086 L 52.344727 108.20156 C 52.344727 108.87832 52.275475 109.53901 52.14375 110.17676 C 51.265103 114.63716 47.333211 118.00195 42.614062 118.00195 C 37.250076 118.00195 32.900977 113.65285 32.900977 108.28887 L 32.900977 42.720703 C 32.900977 42.043893 32.970236 41.383248 33.101953 40.745508 C 33.980705 36.284275 37.913552 32.920312 42.631641 32.920312 z M 224.76152 32.920898 C 230.19352 32.920898 234.59648 37.323272 234.59648 42.755273 L 234.59648 108.0791 C 234.59648 108.76438 234.52654 109.43316 234.39316 110.07891 C 233.50301 114.59516 229.5214 118.00137 224.74395 118.00137 C 219.31195 118.00137 214.90957 113.59841 214.90957 108.16641 L 214.90957 42.842578 C 214.90957 42.156597 214.97985 41.486777 215.11348 40.84043 C 216.00429 36.325268 219.98477 32.920898 224.76152 32.920898 z " /><path
     d="m 314.37199,72.478396 v -3.68416 l 19.1407,-23.37536 0.6352,2.074987 H 314.66842 V 42.83573 h 24.43403 v 3.68416 l -19.1407,23.375359 -0.67754,-2.074987 h 20.36874 v 4.658134 z"
     style="font-weight:600;font-size:31.76px;font-family:Montserrat;-inkscape-font-specification:'Montserrat Semi-Bold';fill:#ffffff;stroke-width:1.33333"
     id="path152454" /><path
     d="m 361.46144,55.158609 h 14.73664 v 4.531094 h -14.73664 z m 0.42347,12.704 h 16.72693 v 4.615787 h -22.232 V 42.83573 h 21.63915 v 4.615786 h -16.13408 z"
     style="font-weight:600;font-size:31.76px;font-family:Montserrat;-inkscape-font-specification:'Montserrat Semi-Bold';fill:#ffffff;stroke-width:1.33333"
     id="path152456" /><path
     d="M 396.43976,72.478396 V 42.83573 h 12.19584 q 3.93824,0 6.73312,1.2704 2.83723,1.2704 4.36171,3.641813 1.52448,2.371413 1.52448,5.632106 0,3.260694 -1.52448,5.632107 -1.52448,2.329066 -4.36171,3.599466 -2.79488,1.228054 -6.73312,1.228054 h -9.14688 l 2.45611,-2.498454 v 11.137174 z m 19.39478,0 -7.49536,-10.756054 h 5.88618 l 7.53771,10.756054 z m -13.88971,-10.54432 -2.45611,-2.625493 h 8.8928 q 3.64182,0 5.46272,-1.566827 1.86326,-1.566827 1.86326,-4.361707 0,-2.837226 -1.86326,-4.361706 -1.8209,-1.52448 -5.46272,-1.52448 h -8.8928 l 2.45611,-2.710187 z"
     style="font-weight:600;font-size:31.76px;font-family:Montserrat;-inkscape-font-specification:'Montserrat Semi-Bold';fill:#ffffff;stroke-width:1.33333"
     id="path152458" /><path
     d="m 452.97256,72.901862 q -3.47242,0 -6.39434,-1.14336 -2.92192,-1.14336 -5.0816,-3.176 -2.15968,-2.074986 -3.34539,-4.82752 -1.18571,-2.79488 -1.18571,-6.097919 0,-3.30304 1.18571,-6.055574 1.18571,-2.79488 3.34539,-4.827519 2.15968,-2.074987 5.0816,-3.218347 2.92192,-1.14336 6.352,-1.14336 3.47242,0 6.352,1.14336 2.92192,1.14336 5.0816,3.218347 2.15968,2.032639 3.34538,4.827519 1.18571,2.752534 1.18571,6.055574 0,3.303039 -1.18571,6.097919 -1.1857,2.79488 -3.34538,4.82752 -2.15968,2.03264 -5.0816,3.176 -2.87958,1.14336 -6.30966,1.14336 z m -0.0424,-4.82752 q 2.24438,0 4.14998,-0.76224 1.9056,-0.76224 3.30304,-2.15968 1.39744,-1.439786 2.15968,-3.30304 0.80458,-1.905599 0.80458,-4.192319 0,-2.28672 -0.80458,-4.149974 -0.76224,-1.9056 -2.15968,-3.30304 -1.39744,-1.439786 -3.30304,-2.202026 -1.9056,-0.76224 -4.14998,-0.76224 -2.24437,0 -4.14997,0.76224 -1.86325,0.76224 -3.30304,2.202026 -1.39744,1.39744 -2.20203,3.30304 -0.76224,1.863254 -0.76224,4.149974 0,2.244373 0.76224,4.149973 0.80459,1.9056 2.20203,3.345386 1.39744,1.39744 3.30304,2.15968 1.9056,0.76224 4.14997,0.76224 z"
     style="font-weight:600;font-size:31.76px;font-family:Montserrat;-inkscape-font-specification:'Montserrat Semi-Bold';fill:#ffffff;stroke-width:1.33333"
     id="path152460" /><path
     d="m 329.04501,114.32551 q -3.38756,0 -6.30934,-1.10107 -2.87941,-1.14342 -5.03898,-3.17617 -2.11723,-2.07509 -3.30287,-4.87012 -1.18565,-2.79502 -1.18565,-6.098232 0,-3.303212 1.18565,-6.098238 1.18564,-2.795025 3.34523,-4.82777 2.15956,-2.075095 5.03897,-3.176165 2.87943,-1.14342 6.30933,-1.14342 3.64162,0 6.64808,1.270466 3.00646,1.228118 5.08134,3.684351 l -3.55694,3.345561 q -1.60909,-1.736304 -3.59928,-2.583281 -1.9902,-0.889326 -4.31913,-0.889326 -2.32895,0 -4.2768,0.762279 -1.90549,0.76228 -3.34521,2.159792 -1.39736,1.397513 -2.20191,3.303212 -0.7622,1.9057 -0.7622,4.192539 0,2.286842 0.7622,4.192532 0.80455,1.9057 2.20191,3.30322 1.43972,1.39751 3.34521,2.15979 1.94785,0.76228 4.2768,0.76228 2.32893,0 4.31913,-0.84698 1.99019,-0.88933 3.59928,-2.66798 l 3.55694,3.38791 q -2.07488,2.41389 -5.08134,3.68435 -3.00645,1.27047 -6.69042,1.27047 z"
     style="font-weight:600;font-size:31.76px;font-family:Montserrat;-inkscape-font-specification:'Montserrat Semi-Bold';letter-spacing:7.875px;fill:#ffffff;stroke-width:2.24977"
     id="path152462" /><path
     d="m 367.5382,114.32551 q -3.47225,0 -6.39402,-1.14342 -2.92176,-1.14342 -5.08134,-3.17616 -2.15956,-2.0751 -3.34521,-4.82778 -1.18564,-2.79502 -1.18564,-6.098232 0,-3.303212 1.18564,-6.055888 1.18565,-2.795026 3.34521,-4.827772 2.15958,-2.075095 5.08134,-3.218513 2.92177,-1.14342 6.35168,-1.14342 3.47224,0 6.35166,1.14342 2.92178,1.143418 5.08134,3.218513 2.15957,2.032746 3.34521,4.827772 1.18564,2.752676 1.18564,6.055888 0,3.303212 -1.18564,6.098232 -1.18564,2.79503 -3.34521,4.82778 -2.15956,2.03274 -5.08134,3.17616 -2.87942,1.14342 -6.30932,1.14342 z m -0.0424,-4.82777 q 2.24426,0 4.14976,-0.76228 1.9055,-0.76228 3.30287,-2.15979 1.39736,-1.43986 2.15956,-3.30322 0.80455,-1.90569 0.80455,-4.192532 0,-2.286839 -0.80455,-4.15019 -0.7622,-1.905698 -2.15956,-3.303212 -1.39737,-1.439861 -3.30287,-2.202141 -1.9055,-0.762279 -4.14976,-0.762279 -2.24426,0 -4.14976,0.762279 -1.86316,0.76228 -3.30286,2.202141 -1.39738,1.397514 -2.20192,3.303212 -0.7622,1.863351 -0.7622,4.15019 0,2.244492 0.7622,4.150192 0.80454,1.9057 2.20192,3.34556 1.39736,1.39751 3.30286,2.15979 1.9055,0.76228 4.14976,0.76228 z"
     style="font-weight:600;font-size:31.76px;font-family:Montserrat;-inkscape-font-specification:'Montserrat Semi-Bold';letter-spacing:7.875px;fill:#ffffff;stroke-width:2.24977"
     id="path152464" /><path
     d="M 396.44043,113.90202 V 84.257814 h 12.1952 q 3.93804,0 6.73277,1.270465 2.83708,1.270467 4.36148,3.642003 1.5244,2.371537 1.5244,5.6324 0,3.260862 -1.5244,5.632398 -1.5244,2.32919 -4.36148,3.59965 -2.79473,1.22812 -6.73277,1.22812 h -9.1464 l 2.45597,-2.49858 v 11.13775 z m 19.39376,0 -7.49497,-10.75661 h 5.88588 l 7.53732,10.75661 z m -13.88899,-10.54487 -2.45597,-2.62563 h 8.89233 q 3.64163,0 5.46244,-1.566905 1.86316,-1.566908 1.86316,-4.361933 0,-2.837375 -1.86316,-4.361934 -1.82081,-1.52456 -5.46244,-1.52456 h -8.89233 l 2.45597,-2.710326 z"
     style="font-weight:600;font-size:31.76px;font-family:Montserrat;-inkscape-font-specification:'Montserrat Semi-Bold';letter-spacing:7.875px;fill:#ffffff;stroke-width:2.24977"
     id="path152466" /><path
     d="m 444.77472,96.581334 h 14.73588 v 4.531326 h -14.73588 z m 0.42346,12.704656 h 16.72605 v 4.61603 H 439.69339 V 84.257814 h 21.63803 v 4.616026 h -16.13324 z"
     style="font-weight:600;font-size:31.76px;font-family:Montserrat;-inkscape-font-specification:'Montserrat Semi-Bold';letter-spacing:7.875px;fill:#ffffff;stroke-width:2.24977"
     id="path152468" /></svg>
